<svg xmlns="http://www.w3.org/2000/svg" width="24" height="24" viewBox="0 0 24 24" fill="none"><path d="M9.06006 11.8997L17.1301 3.83967C17.3931 3.56812 17.7076 3.35162 18.0551 3.20278C18.4027 3.05395 18.7764 2.97575 19.1544 2.97275C19.5325 2.96974 19.9074 3.04199 20.2573 3.18529C20.6071 3.32858 20.925 3.54006 21.1923 3.8074C21.4597 4.07474 21.6711 4.39261 21.8144 4.74248C21.9577 5.09235 22.03 5.46723 22.027 5.8453C22.024 6.22336 21.9458 6.59705 21.7969 6.9446C21.6481 7.29215 21.4316 7.60661 21.1601 7.86967L13.1001 15.9497M7.07002 14.9397C5.41002 14.9397 4.07002 16.2897 4.07002 17.9597C4.07002 19.2897 1.57002 19.4797 2.07002 19.9797C3.15002 21.0797 4.56002 21.9997 6.07002 21.9997C8.27002 21.9997 10.07 20.1997 10.07 17.9597C10.0713 17.5644 9.99478 17.1728 9.84473 16.8071C9.69468 16.4414 9.47407 16.1088 9.19549 15.8284C8.91691 15.5479 8.58583 15.3251 8.22114 15.1726C7.85645 15.0202 7.4653 14.941 7.07002 14.9397Z" stroke="#8B38CB" stroke-linecap="round" stroke-linejoin="round"></path></svg>