<svg width="140" height="35" viewBox="0 0 140 35" fill="none" xmlns="http://www.w3.org/2000/svg">
<g clip-path="url(#clip0_1077_4902)">
<path d="M45.0596 27.7036C45.0063 27.7638 44.9403 27.8116 44.8664 27.8434C44.7925 27.8752 44.7125 27.8903 44.6321 27.8876H43.0527C42.9719 27.8892 42.8917 27.873 42.8179 27.8401C42.744 27.8073 42.6782 27.7587 42.6252 27.6976C42.5138 27.5738 42.4524 27.413 42.453 27.2464V26.6526C41.6669 27.0949 40.8422 27.4645 39.989 27.757C39.1582 28.0118 38.2929 28.136 37.424 28.1251C35.5082 28.1251 34.1109 27.5551 33.2321 26.4151C32.3534 25.2751 31.916 23.6522 31.9199 21.5464V11.1321C31.9186 11.0486 31.9348 10.9659 31.9675 10.8891C32.0002 10.8124 32.0488 10.7435 32.1099 10.6867C32.168 10.6272 32.2372 10.5798 32.3136 10.5472C32.39 10.5146 32.4722 10.4974 32.5553 10.4967H34.0753C34.2408 10.5012 34.3982 10.569 34.5153 10.6861C34.6324 10.8031 34.7001 10.9606 34.7046 11.1261V21.5108C34.6922 22.1857 34.7619 22.8596 34.9124 23.5177C35.0156 23.9879 35.2316 24.426 35.5418 24.7942C35.8319 25.1132 36.2035 25.3472 36.6165 25.4711C37.1255 25.6191 37.654 25.6892 38.184 25.6789C38.8927 25.6722 39.596 25.5539 40.268 25.3286C41.0159 25.0845 41.746 24.7889 42.453 24.4439V11.1261C42.4575 10.9606 42.5253 10.8031 42.6424 10.6861C42.7594 10.569 42.9169 10.5012 43.0824 10.4967H44.6321C44.7129 10.4952 44.7931 10.5114 44.867 10.5442C44.9408 10.5771 45.0066 10.6257 45.0596 10.6867C45.1749 10.8062 45.2388 10.966 45.2377 11.1321V27.2583C45.2382 27.4242 45.1743 27.5838 45.0596 27.7036Z" fill="#1B1B37"/>
<path d="M62.9077 20.3648C62.9077 22.8507 62.3377 24.7645 61.1977 26.1064C60.0577 27.4483 58.3299 28.1172 56.0143 28.1133C55.5274 28.1133 54.9396 28.0776 54.233 28.0183C53.5265 27.9589 52.8971 27.8698 52.2915 27.7629V33.4867C52.2915 33.6441 52.2289 33.7952 52.1176 33.9065C52.0062 34.0179 51.8552 34.0804 51.6977 34.0804H50.0887C50.0111 34.0829 49.934 34.0688 49.8623 34.0391C49.7906 34.0094 49.7261 33.9648 49.673 33.9082C49.5711 33.7894 49.5162 33.6373 49.5187 33.4807V11.7317C49.5075 11.5664 49.5446 11.4014 49.6255 11.2567C49.7777 11.1124 49.9746 11.0245 50.1837 11.0074C51.1109 10.7789 52.0506 10.6044 52.998 10.4849C53.9938 10.3497 54.9975 10.2803 56.0024 10.277C57.0504 10.2528 58.0925 10.4406 59.0661 10.8292C59.8992 11.1751 60.6366 11.7169 61.2155 12.4086C61.8056 13.1341 62.2365 13.9757 62.4802 14.8786C62.7663 15.923 62.9061 17.002 62.8958 18.0848L62.9077 20.3648ZM60.123 18.0967C60.1283 17.3436 60.0587 16.5917 59.9152 15.8523C59.8024 15.2402 59.5726 14.6556 59.2383 14.1305C58.9206 13.6581 58.4846 13.2773 57.9736 13.0261C57.3607 12.742 56.6895 12.6057 56.0143 12.6283C55.3374 12.6283 54.6605 12.6283 53.9896 12.7233C53.3187 12.8183 52.7546 12.8599 52.3152 12.943V25.4651C52.9311 25.583 53.5538 25.6623 54.1796 25.7026C54.8921 25.7561 55.5037 25.7858 56.0143 25.7858C56.6863 25.8054 57.3546 25.6799 57.9736 25.4176C58.4842 25.188 58.9217 24.8224 59.2383 24.3608C59.5756 23.8415 59.8057 23.2601 59.9152 22.6508C60.06 21.9016 60.1296 21.1398 60.123 20.3767V18.0967Z" fill="#1B1B37"/>
<path d="M87.376 27.7036C87.3195 27.7629 87.2512 27.8099 87.1756 27.8416C87.1 27.8733 87.0186 27.889 86.9367 27.8876H85.4345C85.3525 27.889 85.2711 27.8733 85.1955 27.8416C85.1199 27.8099 85.0517 27.7629 84.9951 27.7036C84.9356 27.6456 84.8882 27.5764 84.8556 27.4999C84.823 27.4235 84.8058 27.3414 84.8051 27.2583V16.0602C84.8179 15.5054 84.7417 14.9521 84.5795 14.4214C84.468 14.0306 84.2644 13.6723 83.9857 13.3764C83.7324 13.1208 83.4175 12.9347 83.0714 12.8361C82.7002 12.7326 82.3167 12.6806 81.9314 12.6817C81.3176 12.6876 80.7071 12.7714 80.1145 12.9311C79.4733 13.1033 78.8439 13.3052 78.2323 13.5249C78.4358 14.33 78.5316 15.1586 78.5173 15.9889V27.2701C78.5187 27.4329 78.4618 27.5909 78.357 27.7154C78.3076 27.7757 78.2448 27.8236 78.1738 27.8556C78.1027 27.8875 78.0252 27.9025 77.9473 27.8995H76.273C76.1967 27.9035 76.1205 27.8889 76.0512 27.8568C75.9819 27.8247 75.9214 27.7762 75.8751 27.7154C75.7805 27.5864 75.7305 27.4301 75.7326 27.2701V15.9889C75.7441 15.4214 75.6963 14.8543 75.5901 14.2967C75.527 13.9266 75.3695 13.5789 75.1329 13.2874C74.9317 13.0485 74.6624 12.8766 74.3611 12.7945C74.0138 12.7065 73.6565 12.6646 73.2983 12.6699C72.6662 12.681 72.0411 12.8036 71.4517 13.032C70.7515 13.294 70.0675 13.5973 69.4033 13.9405V27.282C69.4046 27.4448 69.3478 27.6027 69.243 27.7273C69.1932 27.7872 69.1304 27.8349 69.0594 27.8668C68.9884 27.8987 68.9111 27.914 68.8333 27.9114H67.1589C67.0826 27.9154 67.0065 27.9008 66.9372 27.8687C66.8678 27.8366 66.8074 27.7881 66.7611 27.7273C66.6665 27.5983 66.6165 27.442 66.6186 27.282V11.132C66.6177 10.9672 66.6793 10.8081 66.7908 10.6867C66.8455 10.6278 66.9115 10.5805 66.985 10.5479C67.0585 10.5152 67.1379 10.4978 67.2183 10.4967H68.8095C68.8903 10.4952 68.9705 10.5114 69.0444 10.5442C69.1183 10.5771 69.184 10.6257 69.237 10.6867C69.3523 10.8062 69.4162 10.966 69.4151 11.132V11.7258C70.0833 11.3082 70.7914 10.9581 71.5289 10.6808C72.3291 10.3859 73.1758 10.2371 74.0286 10.2414C74.6354 10.2317 75.239 10.3323 75.8098 10.5383C76.3436 10.7532 76.8166 11.0957 77.1873 11.5358C78.0427 11.1248 78.938 10.8025 79.8592 10.5739C80.7011 10.357 81.5667 10.2453 82.4361 10.2414C83.1154 10.2365 83.7918 10.3325 84.4429 10.5264C85.0562 10.7079 85.6152 11.0384 86.0698 11.4883C86.5639 11.9918 86.9374 12.6008 87.1623 13.2695C87.4473 14.1614 87.5817 15.0945 87.5601 16.0305V27.2286C87.5666 27.3164 87.5534 27.4047 87.5216 27.4868C87.4898 27.569 87.44 27.643 87.376 27.7036Z" fill="#1B1B37"/>
<path d="M105.242 19.3852C105.242 19.8483 105.046 20.0798 104.648 20.0798H94.0855V20.5252C94.0855 22.4014 94.4536 23.7255 95.1898 24.5092C95.6252 24.9254 96.1426 25.246 96.7091 25.4505C97.2755 25.655 97.8785 25.7388 98.4792 25.6967C99.4055 25.6967 100.391 25.6611 101.448 25.6017C102.505 25.5423 103.378 25.4533 104.12 25.3464H104.28C104.402 25.3448 104.521 25.3777 104.625 25.4414C104.68 25.48 104.724 25.5331 104.751 25.5949C104.778 25.6567 104.788 25.7248 104.779 25.7917V26.8664C104.789 27.0377 104.746 27.208 104.654 27.3533C104.524 27.4961 104.343 27.5815 104.15 27.5908C103.247 27.763 102.368 27.8936 101.448 27.9886C100.462 28.0882 99.4706 28.1358 98.4792 28.1311C97.5803 28.1302 96.6856 28.0084 95.8192 27.7689C94.9733 27.5318 94.1905 27.11 93.5274 26.5339C92.8215 25.8901 92.2712 25.0942 91.9183 24.2064C91.4803 23.0365 91.2784 21.7913 91.3246 20.543V17.693C91.3246 15.4209 91.9183 13.6179 93.1058 12.2839C94.2933 10.95 96.027 10.2869 98.307 10.2949C99.3426 10.2724 100.373 10.4498 101.341 10.8174C102.166 11.1396 102.905 11.6475 103.502 12.3017C104.096 12.9818 104.541 13.7787 104.809 14.6411C105.114 15.6292 105.262 16.659 105.248 17.693L105.242 19.3852ZM102.463 17.6752C102.463 15.8939 102.119 14.6114 101.436 13.8514C101.029 13.4488 100.54 13.1386 100.002 12.9419C99.4638 12.7452 98.8899 12.6666 98.3189 12.7114C97.7399 12.6715 97.159 12.757 96.6159 12.9619C96.0729 13.1668 95.5804 13.4864 95.172 13.8989C94.4477 14.6906 94.0855 15.9434 94.0855 17.6573V17.9424H102.463V17.6752Z" fill="#1B1B37"/>
<path d="M122.194 27.7036C122.136 27.7637 122.067 27.8111 121.99 27.8428C121.914 27.8745 121.831 27.8898 121.748 27.8876H120.234C120.067 27.8861 119.907 27.8195 119.789 27.702C119.67 27.5844 119.602 27.4252 119.599 27.2583V16.9092C119.613 16.2346 119.545 15.5606 119.397 14.9023C119.292 14.4315 119.074 13.9934 118.762 13.6258C118.468 13.305 118.092 13.0708 117.675 12.9489C117.172 12.8033 116.649 12.7332 116.125 12.7411C115.415 12.7478 114.709 12.866 114.035 13.0914C113.289 13.3212 112.561 13.605 111.856 13.9405V27.2583C111.853 27.4252 111.785 27.5844 111.667 27.702C111.548 27.8195 111.388 27.8861 111.221 27.8876H109.671C109.591 27.8873 109.512 27.8709 109.439 27.8392C109.365 27.8076 109.299 27.7615 109.244 27.7036C109.133 27.5816 109.072 27.4229 109.072 27.2583V11.1321C109.071 10.9672 109.132 10.8081 109.244 10.6867C109.299 10.6278 109.365 10.5805 109.438 10.5479C109.512 10.5152 109.591 10.4978 109.671 10.4967H111.251C111.332 10.4951 111.413 10.5118 111.487 10.5458C111.561 10.5797 111.626 10.6299 111.678 10.6927C111.794 10.8121 111.857 10.972 111.856 11.138V11.7317C112.641 11.2861 113.466 10.9163 114.32 10.6274C115.149 10.3729 116.013 10.2487 116.879 10.2592C118.797 10.2592 120.199 10.853 121.071 11.9692C121.944 13.0855 122.384 14.7302 122.384 16.838V27.2404C122.385 27.3265 122.369 27.4121 122.337 27.4917C122.304 27.5714 122.255 27.6435 122.194 27.7036Z" fill="#1B1B37"/>
<path d="M139.822 27.7036C139.768 27.7632 139.702 27.8105 139.628 27.8423C139.554 27.8741 139.475 27.8895 139.394 27.8876H137.815C137.734 27.8905 137.653 27.8748 137.579 27.8419C137.505 27.809 137.44 27.7596 137.388 27.6976C137.273 27.5754 137.212 27.4135 137.215 27.2464V26.6526C136.428 27.096 135.601 27.4657 134.745 27.757C133.917 28.0119 133.053 28.1361 132.186 28.1251C130.268 28.1251 128.867 27.5314 127.994 26.4151C127.122 25.2989 126.682 23.6542 126.682 21.5464V11.132C126.681 11.0486 126.697 10.9659 126.73 10.8891C126.762 10.8124 126.811 10.7435 126.872 10.6867C126.929 10.6256 126.998 10.577 127.075 10.5443C127.151 10.5116 127.234 10.4953 127.318 10.4967H128.832C128.998 10.4997 129.157 10.5668 129.275 10.684C129.394 10.8013 129.462 10.9596 129.467 11.1261V21.5108C129.452 22.1854 129.52 22.8594 129.669 23.5176C129.774 23.9885 129.992 24.4266 130.304 24.7942C130.594 25.1132 130.966 25.3472 131.379 25.4711C131.888 25.6191 132.416 25.6892 132.946 25.6789C133.655 25.6717 134.358 25.5534 135.03 25.3286C135.778 25.0835 136.508 24.7879 137.215 24.4439V11.1261C137.215 11.0437 137.231 10.9621 137.264 10.8864C137.297 10.8108 137.345 10.7428 137.405 10.6867C137.461 10.6263 137.529 10.5782 137.605 10.5455C137.681 10.5128 137.762 10.4962 137.845 10.4967H139.394C139.475 10.4978 139.554 10.5152 139.628 10.5479C139.701 10.5805 139.767 10.6278 139.822 10.6867C139.933 10.8081 139.995 10.9672 139.994 11.132V27.2583C139.994 27.4229 139.932 27.5816 139.822 27.7036Z" fill="#1B1B37"/>
<path d="M11.2159 12.3017C11.0405 12.3033 10.8729 12.374 10.7495 12.4986C10.6261 12.6231 10.5568 12.7914 10.5568 12.9667V14.4808C10.5724 14.6456 10.6489 14.7986 10.7714 14.9099C10.8938 15.0213 11.0534 15.083 11.2189 15.083C11.3844 15.083 11.5439 15.0213 11.6663 14.9099C11.7888 14.7986 11.8653 14.6456 11.8809 14.4808V12.9667C11.8809 12.7904 11.8108 12.6212 11.6861 12.4965C11.5614 12.3718 11.3923 12.3017 11.2159 12.3017Z" fill="#81468C"/>
<path d="M11.2159 32.3942C11.1293 32.3942 11.0436 32.4112 10.9637 32.4444C10.8837 32.4775 10.8111 32.526 10.7499 32.5872C10.6887 32.6484 10.6401 32.7211 10.607 32.801C10.5739 32.881 10.5568 32.9667 10.5568 33.0532V33.5342C10.5568 33.709 10.6263 33.8766 10.7499 34.0002C10.8735 34.1238 11.0411 34.1932 11.2159 34.1932C11.3907 34.1932 11.5583 34.1238 11.6819 34.0002C11.8055 33.8766 11.8749 33.709 11.8749 33.5342V33.0414C11.8718 32.8686 11.801 32.704 11.6778 32.583C11.5545 32.462 11.3886 32.3942 11.2159 32.3942Z" fill="#81468C"/>
<path d="M16.4884 29.3304C16.4019 29.3304 16.3161 29.3475 16.2362 29.3806C16.1562 29.4137 16.0836 29.4623 16.0224 29.5235C15.9612 29.5847 15.9126 29.6573 15.8795 29.7373C15.8464 29.8173 15.8293 29.903 15.8293 29.9895V32.2458C15.8293 32.4205 15.8988 32.5882 16.0224 32.7118C16.146 32.8354 16.3136 32.9048 16.4884 32.9048C16.6632 32.9048 16.8308 32.8354 16.9544 32.7118C17.078 32.5882 17.1475 32.4205 17.1475 32.2458V29.9717C17.1428 29.8 17.0713 29.6369 16.9482 29.5171C16.8251 29.3974 16.6602 29.3304 16.4884 29.3304Z" fill="#81468C"/>
<path d="M22.4022 14.8252V6.63143C22.4023 6.16495 22.2618 5.70926 21.9992 5.32375C21.7365 4.93824 21.3638 4.6408 20.9297 4.47019L12.0234 0.961133C11.7511 0.853482 11.4613 0.797119 11.1684 0.794884C10.8756 0.797119 10.5858 0.853482 10.3134 0.961133L1.4369 4.47019C1.00384 4.64174 0.632411 4.93958 0.370867 5.32501C0.109323 5.71044 -0.0302359 6.16564 -0.0296613 6.63143V25.5364L3.1469 24.2836L11.2159 21.113L19.2375 24.2836L22.42 25.5364V14.8489L22.4022 14.8252ZM11.8572 18.8745V16.838C11.8572 16.6632 11.7877 16.4955 11.6642 16.3719C11.5406 16.2483 11.3729 16.1789 11.1981 16.1789C11.0233 16.1789 10.8557 16.2483 10.7321 16.3719C10.6085 16.4955 10.5391 16.6632 10.5391 16.838V18.8745L2.30971 22.1223V6.63143L10.5272 3.38363V10.4136C10.5272 10.5884 10.5966 10.756 10.7202 10.8796C10.8438 11.0032 11.0115 11.0727 11.1863 11.0727C11.361 11.0727 11.5287 11.0032 11.6523 10.8796C11.7759 10.756 11.8453 10.5884 11.8453 10.4136V3.38363L20.0628 6.63143V22.1223L11.8572 18.8745Z" fill="#81468C"/>
<path d="M15.8293 26.902C15.8293 27.0768 15.8988 27.2444 16.0224 27.368C16.146 27.4916 16.3136 27.5611 16.4884 27.5611C16.6632 27.5611 16.8308 27.4916 16.9544 27.368C17.078 27.2444 17.1475 27.0768 17.1475 26.902V25.2217L15.8293 24.6992V26.902Z" fill="#81468C"/>
<path d="M10.5391 23.1377V29.9717C10.5391 30.1465 10.6085 30.3141 10.7321 30.4377C10.8557 30.5613 11.0233 30.6308 11.1981 30.6308C11.3729 30.6308 11.5405 30.5613 11.6641 30.4377C11.7877 30.3141 11.8572 30.1465 11.8572 29.9717V23.1317L11.2159 22.8467L10.5391 23.1377Z" fill="#81468C"/>
<path d="M5.27844 31.5392C5.27844 31.714 5.34788 31.8816 5.47148 32.0052C5.59508 32.1288 5.76271 32.1982 5.9375 32.1982C6.1123 32.1982 6.27993 32.1288 6.40353 32.0052C6.52712 31.8816 6.59656 31.714 6.59656 31.5392V24.7051L5.27844 25.2217V31.5392Z" fill="#81468C"/>
<path d="M45.0596 27.7036C45.0063 27.7638 44.9403 27.8116 44.8664 27.8434C44.7925 27.8752 44.7125 27.8903 44.6321 27.8876H43.0527C42.9719 27.8892 42.8917 27.873 42.8179 27.8401C42.744 27.8073 42.6782 27.7587 42.6252 27.6976C42.5138 27.5738 42.4524 27.413 42.453 27.2464V26.6526C41.6669 27.0949 40.8422 27.4645 39.989 27.757C39.1582 28.0118 38.2929 28.136 37.424 28.1251C35.5082 28.1251 34.1109 27.5551 33.2321 26.4151C32.3534 25.2751 31.916 23.6522 31.9199 21.5464V11.1321C31.9186 11.0486 31.9348 10.9659 31.9675 10.8891C32.0002 10.8124 32.0488 10.7435 32.1099 10.6867C32.168 10.6272 32.2372 10.5798 32.3136 10.5472C32.39 10.5146 32.4722 10.4974 32.5553 10.4967H34.0753C34.2408 10.5012 34.3982 10.569 34.5153 10.6861C34.6324 10.8031 34.7001 10.9606 34.7046 11.1261V21.5108C34.6922 22.1857 34.7619 22.8596 34.9124 23.5177C35.0156 23.9879 35.2316 24.426 35.5418 24.7942C35.8319 25.1132 36.2035 25.3472 36.6165 25.4711C37.1255 25.6191 37.654 25.6892 38.184 25.6789C38.8927 25.6722 39.596 25.5539 40.268 25.3286C41.0159 25.0845 41.746 24.7889 42.453 24.4439V11.1261C42.4575 10.9606 42.5253 10.8031 42.6424 10.6861C42.7594 10.569 42.9169 10.5012 43.0824 10.4967H44.6321C44.7129 10.4952 44.7931 10.5114 44.867 10.5442C44.9408 10.5771 45.0066 10.6257 45.0596 10.6867C45.1749 10.8062 45.2388 10.966 45.2377 11.1321V27.2583C45.2382 27.4242 45.1743 27.5838 45.0596 27.7036Z" fill="#1D1D3F"/>
<path d="M62.9077 20.3648C62.9077 22.8507 62.3377 24.7645 61.1977 26.1064C60.0577 27.4483 58.3299 28.1172 56.0143 28.1133C55.5274 28.1133 54.9396 28.0776 54.233 28.0183C53.5265 27.9589 52.8971 27.8698 52.2915 27.7629V33.4867C52.2915 33.6441 52.2289 33.7952 52.1176 33.9065C52.0062 34.0179 51.8552 34.0804 51.6977 34.0804H50.0887C50.0111 34.0829 49.934 34.0688 49.8623 34.0391C49.7906 34.0094 49.7261 33.9648 49.673 33.9082C49.5711 33.7894 49.5162 33.6373 49.5187 33.4807V11.7317C49.5075 11.5664 49.5446 11.4014 49.6255 11.2567C49.7777 11.1124 49.9746 11.0245 50.1837 11.0074C51.1109 10.7789 52.0506 10.6044 52.998 10.4849C53.9938 10.3497 54.9975 10.2803 56.0024 10.277C57.0504 10.2528 58.0925 10.4406 59.0661 10.8292C59.8992 11.1751 60.6366 11.7169 61.2155 12.4086C61.8056 13.1341 62.2365 13.9757 62.4802 14.8786C62.7663 15.923 62.9061 17.002 62.8958 18.0848L62.9077 20.3648ZM60.123 18.0967C60.1283 17.3436 60.0587 16.5917 59.9152 15.8523C59.8024 15.2402 59.5726 14.6556 59.2383 14.1305C58.9206 13.6581 58.4846 13.2773 57.9736 13.0261C57.3607 12.742 56.6895 12.6057 56.0143 12.6283C55.3374 12.6283 54.6605 12.6283 53.9896 12.7233C53.3187 12.8183 52.7546 12.8599 52.3152 12.943V25.4651C52.9311 25.583 53.5538 25.6623 54.1796 25.7026C54.8921 25.7561 55.5037 25.7858 56.0143 25.7858C56.6863 25.8054 57.3546 25.6799 57.9736 25.4176C58.4842 25.188 58.9217 24.8224 59.2383 24.3608C59.5756 23.8415 59.8057 23.2601 59.9152 22.6508C60.06 21.9016 60.1296 21.1398 60.123 20.3767V18.0967Z" fill="#1D1D3F"/>
<path d="M87.376 27.7036C87.3195 27.7629 87.2512 27.8099 87.1756 27.8416C87.1 27.8733 87.0186 27.889 86.9367 27.8876H85.4345C85.3525 27.889 85.2711 27.8733 85.1955 27.8416C85.1199 27.8099 85.0517 27.7629 84.9951 27.7036C84.9356 27.6456 84.8882 27.5764 84.8556 27.4999C84.823 27.4235 84.8058 27.3414 84.8051 27.2583V16.0602C84.8179 15.5054 84.7417 14.9521 84.5795 14.4214C84.468 14.0306 84.2644 13.6723 83.9857 13.3764C83.7324 13.1208 83.4175 12.9347 83.0714 12.8361C82.7002 12.7326 82.3167 12.6806 81.9314 12.6817C81.3176 12.6876 80.7071 12.7714 80.1145 12.9311C79.4733 13.1033 78.8439 13.3052 78.2323 13.5249C78.4358 14.33 78.5316 15.1586 78.5173 15.9889V27.2701C78.5187 27.4329 78.4618 27.5909 78.357 27.7154C78.3076 27.7757 78.2448 27.8236 78.1738 27.8556C78.1027 27.8875 78.0252 27.9025 77.9473 27.8995H76.273C76.1967 27.9035 76.1205 27.8889 76.0512 27.8568C75.9819 27.8247 75.9214 27.7762 75.8751 27.7154C75.7805 27.5864 75.7305 27.4301 75.7326 27.2701V15.9889C75.7441 15.4214 75.6963 14.8543 75.5901 14.2967C75.527 13.9266 75.3695 13.5789 75.1329 13.2874C74.9317 13.0485 74.6624 12.8766 74.3611 12.7945C74.0138 12.7065 73.6565 12.6646 73.2983 12.6699C72.6662 12.681 72.0411 12.8036 71.4517 13.032C70.7515 13.294 70.0675 13.5973 69.4033 13.9405V27.282C69.4046 27.4448 69.3478 27.6027 69.243 27.7273C69.1932 27.7872 69.1304 27.8349 69.0594 27.8668C68.9884 27.8987 68.9111 27.914 68.8333 27.9114H67.1589C67.0826 27.9154 67.0065 27.9008 66.9372 27.8687C66.8678 27.8366 66.8074 27.7881 66.7611 27.7273C66.6665 27.5983 66.6165 27.442 66.6186 27.282V11.132C66.6177 10.9672 66.6793 10.8081 66.7908 10.6867C66.8455 10.6278 66.9115 10.5805 66.985 10.5479C67.0585 10.5152 67.1379 10.4978 67.2183 10.4967H68.8095C68.8903 10.4952 68.9705 10.5114 69.0444 10.5442C69.1183 10.5771 69.184 10.6257 69.237 10.6867C69.3523 10.8062 69.4162 10.966 69.4151 11.132V11.7258C70.0833 11.3082 70.7914 10.9581 71.5289 10.6808C72.3291 10.3859 73.1758 10.2371 74.0286 10.2414C74.6354 10.2317 75.239 10.3323 75.8098 10.5383C76.3436 10.7532 76.8166 11.0957 77.1873 11.5358C78.0427 11.1248 78.938 10.8025 79.8592 10.5739C80.7011 10.357 81.5667 10.2453 82.4361 10.2414C83.1154 10.2365 83.7918 10.3325 84.4429 10.5264C85.0562 10.7079 85.6152 11.0384 86.0698 11.4883C86.5639 11.9918 86.9374 12.6008 87.1623 13.2695C87.4473 14.1614 87.5817 15.0945 87.5601 16.0305V27.2286C87.5666 27.3164 87.5534 27.4047 87.5216 27.4868C87.4898 27.569 87.44 27.643 87.376 27.7036Z" fill="#1D1D3F"/>
<path d="M105.242 19.3852C105.242 19.8483 105.046 20.0798 104.648 20.0798H94.0855V20.5252C94.0855 22.4014 94.4536 23.7255 95.1898 24.5092C95.6252 24.9254 96.1426 25.246 96.7091 25.4505C97.2755 25.655 97.8785 25.7388 98.4792 25.6967C99.4055 25.6967 100.391 25.6611 101.448 25.6017C102.505 25.5423 103.378 25.4533 104.12 25.3464H104.28C104.402 25.3448 104.521 25.3777 104.625 25.4414C104.68 25.48 104.724 25.5331 104.751 25.5949C104.778 25.6567 104.788 25.7248 104.779 25.7917V26.8664C104.789 27.0377 104.746 27.208 104.654 27.3533C104.524 27.4961 104.343 27.5815 104.15 27.5908C103.247 27.763 102.368 27.8936 101.448 27.9886C100.462 28.0882 99.4706 28.1358 98.4792 28.1311C97.5803 28.1302 96.6856 28.0084 95.8192 27.7689C94.9733 27.5318 94.1905 27.11 93.5274 26.5339C92.8215 25.8901 92.2712 25.0942 91.9183 24.2064C91.4803 23.0365 91.2784 21.7913 91.3246 20.543V17.693C91.3246 15.4209 91.9183 13.6179 93.1058 12.2839C94.2933 10.95 96.027 10.2869 98.307 10.2949C99.3426 10.2724 100.373 10.4498 101.341 10.8174C102.166 11.1396 102.905 11.6475 103.502 12.3017C104.096 12.9818 104.541 13.7787 104.809 14.6411C105.114 15.6292 105.262 16.659 105.248 17.693L105.242 19.3852ZM102.463 17.6752C102.463 15.8939 102.119 14.6114 101.436 13.8514C101.029 13.4488 100.54 13.1386 100.002 12.9419C99.4638 12.7452 98.8899 12.6666 98.3189 12.7114C97.7399 12.6715 97.159 12.757 96.6159 12.9619C96.0729 13.1668 95.5804 13.4864 95.172 13.8989C94.4477 14.6906 94.0855 15.9434 94.0855 17.6573V17.9424H102.463V17.6752Z" fill="#1D1D3F"/>
<path d="M122.194 27.7036C122.136 27.7637 122.067 27.8111 121.99 27.8428C121.914 27.8745 121.831 27.8898 121.748 27.8876H120.234C120.067 27.8861 119.907 27.8195 119.789 27.702C119.67 27.5844 119.602 27.4252 119.599 27.2583V16.9092C119.613 16.2346 119.545 15.5606 119.397 14.9023C119.292 14.4315 119.074 13.9934 118.762 13.6258C118.468 13.305 118.092 13.0708 117.675 12.9489C117.172 12.8033 116.649 12.7332 116.125 12.7411C115.415 12.7478 114.709 12.866 114.035 13.0914C113.289 13.3212 112.561 13.605 111.856 13.9405V27.2583C111.853 27.4252 111.785 27.5844 111.667 27.702C111.548 27.8195 111.388 27.8861 111.221 27.8876H109.671C109.591 27.8873 109.512 27.8709 109.439 27.8392C109.365 27.8076 109.299 27.7615 109.244 27.7036C109.133 27.5816 109.072 27.4229 109.072 27.2583V11.1321C109.071 10.9672 109.132 10.8081 109.244 10.6867C109.299 10.6278 109.365 10.5805 109.438 10.5479C109.512 10.5152 109.591 10.4978 109.671 10.4967H111.251C111.332 10.4951 111.413 10.5118 111.487 10.5458C111.561 10.5797 111.626 10.6299 111.678 10.6927C111.794 10.8121 111.857 10.972 111.856 11.138V11.7317C112.641 11.2861 113.466 10.9163 114.32 10.6274C115.149 10.3729 116.013 10.2487 116.879 10.2592C118.797 10.2592 120.199 10.853 121.071 11.9692C121.944 13.0855 122.384 14.7302 122.384 16.838V27.2404C122.385 27.3265 122.369 27.4121 122.337 27.4917C122.304 27.5714 122.255 27.6435 122.194 27.7036Z" fill="#1D1D3F"/>
<path d="M139.822 27.7036C139.768 27.7632 139.702 27.8105 139.628 27.8423C139.554 27.8741 139.475 27.8895 139.394 27.8876H137.815C137.734 27.8905 137.653 27.8748 137.579 27.8419C137.505 27.809 137.44 27.7596 137.388 27.6976C137.273 27.5754 137.212 27.4135 137.215 27.2464V26.6526C136.428 27.096 135.601 27.4657 134.745 27.757C133.917 28.0119 133.053 28.1361 132.186 28.1251C130.268 28.1251 128.867 27.5314 127.994 26.4151C127.122 25.2989 126.682 23.6542 126.682 21.5464V11.132C126.681 11.0486 126.697 10.9659 126.73 10.8891C126.762 10.8124 126.811 10.7435 126.872 10.6867C126.929 10.6256 126.998 10.577 127.075 10.5443C127.151 10.5116 127.234 10.4953 127.318 10.4967H128.832C128.998 10.4997 129.157 10.5668 129.275 10.684C129.394 10.8013 129.462 10.9596 129.467 11.1261V21.5108C129.452 22.1854 129.52 22.8594 129.669 23.5176C129.774 23.9885 129.992 24.4266 130.304 24.7942C130.594 25.1132 130.966 25.3472 131.379 25.4711C131.888 25.6191 132.416 25.6892 132.946 25.6789C133.655 25.6717 134.358 25.5534 135.03 25.3286C135.778 25.0835 136.508 24.7879 137.215 24.4439V11.1261C137.215 11.0437 137.231 10.9621 137.264 10.8864C137.297 10.8108 137.345 10.7428 137.405 10.6867C137.461 10.6263 137.529 10.5782 137.605 10.5455C137.681 10.5128 137.762 10.4962 137.845 10.4967H139.394C139.475 10.4978 139.554 10.5152 139.628 10.5479C139.701 10.5805 139.767 10.6278 139.822 10.6867C139.933 10.8081 139.995 10.9672 139.994 11.132V27.2583C139.994 27.4229 139.932 27.5816 139.822 27.7036Z" fill="#1D1D3F"/>
<path d="M11.2159 12.3017C11.0405 12.3033 10.8729 12.374 10.7495 12.4986C10.6261 12.6231 10.5568 12.7914 10.5568 12.9667V14.4808C10.5724 14.6456 10.6489 14.7986 10.7714 14.9099C10.8938 15.0213 11.0534 15.083 11.2189 15.083C11.3844 15.083 11.5439 15.0213 11.6663 14.9099C11.7888 14.7986 11.8653 14.6456 11.8809 14.4808V12.9667C11.8809 12.7904 11.8108 12.6212 11.6861 12.4965C11.5614 12.3718 11.3923 12.3017 11.2159 12.3017Z" fill="#8B4F96"/>
<path d="M11.2159 32.3942C11.1293 32.3942 11.0436 32.4112 10.9637 32.4444C10.8837 32.4775 10.8111 32.526 10.7499 32.5872C10.6887 32.6484 10.6401 32.7211 10.607 32.801C10.5739 32.881 10.5568 32.9667 10.5568 33.0532V33.5342C10.5568 33.709 10.6263 33.8766 10.7499 34.0002C10.8735 34.1238 11.0411 34.1932 11.2159 34.1932C11.3907 34.1932 11.5583 34.1238 11.6819 34.0002C11.8055 33.8766 11.8749 33.709 11.8749 33.5342V33.0414C11.8718 32.8686 11.801 32.704 11.6778 32.583C11.5545 32.462 11.3886 32.3942 11.2159 32.3942Z" fill="#8B4F96"/>
<path d="M16.4884 29.3304C16.4019 29.3304 16.3161 29.3475 16.2362 29.3806C16.1562 29.4137 16.0836 29.4623 16.0224 29.5235C15.9612 29.5847 15.9126 29.6573 15.8795 29.7373C15.8464 29.8173 15.8293 29.903 15.8293 29.9895V32.2458C15.8293 32.4205 15.8988 32.5882 16.0224 32.7118C16.146 32.8354 16.3136 32.9048 16.4884 32.9048C16.6632 32.9048 16.8308 32.8354 16.9544 32.7118C17.078 32.5882 17.1475 32.4205 17.1475 32.2458V29.9717C17.1428 29.8 17.0713 29.6369 16.9482 29.5171C16.8251 29.3974 16.6602 29.3304 16.4884 29.3304Z" fill="#8B4F96"/>
<path d="M22.4022 14.8252V6.63143C22.4023 6.16495 22.2618 5.70926 21.9992 5.32375C21.7365 4.93824 21.3638 4.6408 20.9297 4.47019L12.0234 0.961133C11.7511 0.853482 11.4613 0.797119 11.1684 0.794884C10.8756 0.797119 10.5858 0.853482 10.3134 0.961133L1.4369 4.47019C1.00384 4.64174 0.632411 4.93958 0.370867 5.32501C0.109323 5.71044 -0.0302359 6.16564 -0.0296613 6.63143V25.5364L3.1469 24.2836L11.2159 21.113L19.2375 24.2836L22.42 25.5364V14.8489L22.4022 14.8252ZM11.8572 18.8745V16.838C11.8572 16.6632 11.7877 16.4955 11.6642 16.3719C11.5406 16.2483 11.3729 16.1789 11.1981 16.1789C11.0233 16.1789 10.8557 16.2483 10.7321 16.3719C10.6085 16.4955 10.5391 16.6632 10.5391 16.838V18.8745L2.30971 22.1223V6.63143L10.5272 3.38363V10.4136C10.5272 10.5884 10.5966 10.756 10.7202 10.8796C10.8438 11.0032 11.0115 11.0727 11.1863 11.0727C11.361 11.0727 11.5287 11.0032 11.6523 10.8796C11.7759 10.756 11.8453 10.5884 11.8453 10.4136V3.38363L20.0628 6.63143V22.1223L11.8572 18.8745Z" fill="#8B4F96"/>
<path d="M15.8293 26.902C15.8293 27.0768 15.8988 27.2444 16.0224 27.368C16.146 27.4916 16.3136 27.5611 16.4884 27.5611C16.6632 27.5611 16.8308 27.4916 16.9544 27.368C17.078 27.2444 17.1475 27.0768 17.1475 26.902V25.2217L15.8293 24.6992V26.902Z" fill="#8B4F96"/>
<path d="M10.5391 23.1377V29.9717C10.5391 30.1465 10.6085 30.3141 10.7321 30.4377C10.8557 30.5613 11.0233 30.6308 11.1981 30.6308C11.3729 30.6308 11.5405 30.5613 11.6641 30.4377C11.7877 30.3141 11.8572 30.1465 11.8572 29.9717V23.1317L11.2159 22.8467L10.5391 23.1377Z" fill="#8B4F96"/>
<path d="M5.27844 31.5392C5.27844 31.714 5.34788 31.8816 5.47148 32.0052C5.59508 32.1288 5.76271 32.1982 5.9375 32.1982C6.1123 32.1982 6.27993 32.1288 6.40353 32.0052C6.52712 31.8816 6.59656 31.714 6.59656 31.5392V24.7051L5.27844 25.2217V31.5392Z" fill="#8B4F96"/>
</g>
<defs>
<clipPath id="clip0_1077_4902">
<rect width="140" height="33.4102" fill="white" transform="translate(0 0.794884)"/>
</clipPath>
</defs>
</svg>
