<svg xmlns="http://www.w3.org/2000/svg" version="1.1" xmlns:xlink="http://www.w3.org/1999/xlink" xmlns:svgjs="http://svgjs.dev/svgjs" width="1000" height="623" viewBox="0 0 1000 623"><g transform="matrix(1,0,0,1,-0.606039590235639,0.2522267206477409)"><svg viewBox="0 0 396 247" data-background-color="#ffffff" preserveAspectRatio="xMidYMid meet" height="623" width="1000" xmlns="http://www.w3.org/2000/svg" xmlns:xlink="http://www.w3.org/1999/xlink"><defs></defs><g id="tight-bounds" transform="matrix(1,0,0,1,0.23999167773331465,-0.09999999999999432)"><svg viewBox="0 0 395.52 247.2" height="247.2" width="395.52"><g><svg></svg></g><g><svg viewBox="0 0 395.52 247.2" height="247.2" width="395.52"><g><path d="M125.321 33.74c19.372-22.494 43.518-33.74 72.439-33.74 48.904 0 80.147 21.612 93.73 64.835h-22.395c-10.844-38.633-34.622-57.949-71.335-57.949-22.264 0-40.856 10.443-55.775 31.33-5.581 7.813-10.118 16.686-13.611 26.619l-21.86 0c4.678-11.625 10.948-21.99 18.807-31.095zM270.405 214.286c-19.28 21.943-43.495 32.914-72.645 32.914-49.177 0-80.496-21.612-93.956-64.835h22.621c10.844 38.633 34.622 57.949 71.335 57.949 22.494 0 41.154-10.329 55.982-30.986 5.614-7.845 10.162-16.833 13.643-26.963h22.228c-4.698 12.073-11.101 22.713-19.208 31.921z" fill="#f5ba41" data-fill-palette-color="tertiary"></path></g><g transform="matrix(1,0,0,1,0,78.11086179880914)"><svg viewBox="0 0 395.52 90.9782764023817" height="90.9782764023817" width="395.52"><g><svg viewBox="0 0 395.52 90.9782764023817" height="90.9782764023817" width="395.52"><g><svg viewBox="0 0 395.52 90.9782764023817" height="90.9782764023817" width="395.52"><g><svg viewBox="0 0 395.52 90.9782764023817" height="90.9782764023817" width="395.52"><g><svg viewBox="0 0 395.52 90.9782764023817" height="90.9782764023817" width="395.52"><g><svg viewBox="0 0 395.52 90.9782764023817" height="90.9782764023817" width="395.52"><g transform="matrix(1,0,0,1,0,0)"><svg width="395.52" viewBox="2 -36.25 159.5399932861328 36.70000076293945" height="90.9782764023817" data-palette-color="#f5ba41"><path d="M2-17.4L2-17.4Q2-25.65 6.23-30.55 10.45-35.45 16.75-35.45L16.75-35.45Q31.5-35.45 31.5-17.4L31.5-17.4Q31.5-9.1 27.3-4.33 23.1 0.45 16.75 0.45L16.75 0.45Q2 0.45 2-17.4ZM5.4-17.5L5.4-17.5Q5.4-0.55 16.75-0.55L16.75-0.55Q21.65-0.55 24.88-5.05 28.1-9.55 28.1-17.5L28.1-17.5Q28.1-34.45 16.75-34.45L16.75-34.45Q11.9-34.45 8.65-29.9 5.4-25.35 5.4-17.5ZM41.05-22.95L41.05-22.95 41.05-18.95Q45-24.75 48.8-24.85L48.8-24.85Q49.1-24.85 49.4-24.85L49.4-24.85 52.2-24.5 50.9-21.5Q49.95-22.45 48.45-22.45L48.45-22.45Q44.8-22.4 41.05-17.6L41.05-17.6 41.05-1 45.3-0.75Q45.3-0.7 45.25 0L45.25 0 34.75 0.05Q34.75-0.4 34.8-0.65L34.8-0.65 37.4-1Q37.8-1.05 37.8-1.7L37.8-1.7 37.8-23.4Q37.7-23.75 37.5-23.75L37.5-23.75 34.5-23.85 34.55-24.55Q37.25-25 38.65-25 40.05-25 40.55-24.35 41.05-23.7 41.05-22.95ZM61.25-22.95L61.25-22.95 61.25-1 65-0.75Q65-0.7 64.95 0L64.95 0 54.95 0.05Q54.95-0.4 55-0.65L55-0.65 57.6-1Q57.9-1 58-1.45L58-1.45 58-23.4Q57.9-23.75 57.7-23.75L57.7-23.75 54.7-23.85 54.75-24.55Q57.45-25 58.85-25 60.25-25 60.75-24.35 61.25-23.7 61.25-22.95ZM59.55-31.7Q58.55-31.7 58-32.33 57.45-32.95 57.45-33.98 57.45-35 58.02-35.63 58.6-36.25 59.6-36.25 60.6-36.25 61.22-35.63 61.85-35 61.85-33.93 61.85-32.85 61.2-32.27 60.55-31.7 59.55-31.7ZM72.99-11.5L72.99-11.5Q72.99-0.7 81.39-0.7L81.39-0.7Q83.59-0.7 86.09-1.18 88.59-1.65 89.29-2.05L89.29-2.05 89.64-1.55Q88.49-0.8 85.87-0.3 83.24 0.2 81.07 0.2 78.89 0.2 77.17-0.25 75.44-0.7 73.64-1.85 71.84-3 70.79-5.45 69.74-7.9 69.74-11.45L69.74-11.45Q69.74-18.05 73.14-21.55L73.14-21.55Q76.69-25.2 81.39-25.2 86.09-25.2 88.57-22.6 91.04-20 91.04-15.3L91.04-15.3Q91.04-14.3 90.89-13.15L90.89-13.15 73.04-13.15Q72.99-12.6 72.99-11.5ZM88.09-15.65L88.09-15.65Q88.09-19.4 86.44-21.78 84.79-24.15 81.94-24.15L81.94-24.15Q78.24-24.15 75.69-20.9L75.69-20.9Q73.64-18.35 73.14-14.1L73.14-14.1 88.04-14.1Q88.09-14.65 88.09-15.65ZM104.59 0L94.54 0.05 94.59-0.65 97.19-1Q97.64-1.05 97.64-1.7L97.64-1.7 97.64-23.35Q97.54-23.75 97.34-23.75L97.34-23.75 94.29-23.85 94.34-24.55Q97.49-25 98.59-25L98.59-25Q100.59-25 100.84-23.25L100.84-23.25 100.89-23.25 100.89-22.2Q104.99-25 108.74-25.15L108.74-25.15Q112.39-25.15 114.29-23.7L114.29-23.7Q115.14-23.05 115.82-21.68 116.49-20.3 116.49-18.4L116.49-18.4 116.49-1 120.24-0.75Q120.24-0.7 120.19 0L120.19 0 110.19 0.05Q110.19-0.4 110.24-0.65L110.24-0.65 112.84-1Q113.24-1.05 113.24-1.7L113.24-1.7 113.24-17.15Q113.24-19.15 112.72-20.55 112.19-21.95 111.54-22.6 110.89-23.25 109.94-23.6L109.94-23.6Q108.84-24 107.64-24L107.64-24Q104.64-23.95 100.89-21.65L100.89-21.65 100.89-1 104.64-0.75Q104.64-0.7 104.59 0L104.59 0ZM133.69-0.95L133.69-0.95 135.64-1.05 135.79-0.55Q135.74-0.55 135.09-0.4L135.09-0.4Q133.59-0.05 131.74-0.05L131.74-0.05Q130.04-0.15 128.64-0.63 127.24-1.1 126.04-2.63 124.84-4.15 124.84-6.55L124.84-6.55 124.84-24.1 122.29-24.1 122.69-24.5 124.89-24.95 125.29-29.75 128.09-30 128.09-25 134.14-25 134.14-24.1 128.09-24.1 128.09-7.4Q128.09-3.6 129.69-2.27 131.29-0.95 133.69-0.95ZM154.59-1.9L154.59-1.9 154.44-1.9Q149.94 0.2 145.69 0.2L145.69 0.2Q139.04 0.2 138.64-5.05L138.64-5.05Q138.59-5.4 138.59-5.7L138.59-5.7Q138.59-9.55 143.64-10.85L143.64-10.85Q146.64-11.5 154.44-12.4L154.44-12.4 154.44-16.8Q154.44-18.9 153.94-20.4 153.44-21.9 152.84-22.63 152.24-23.35 151.29-23.75L151.29-23.75Q150.09-24.25 148.61-24.25 147.14-24.25 145.24-23.5L145.24-23.5Q142.49-22.35 140.34-20.6L140.34-20.6 140.14-16.7 139.19-16.45 139.19-22.5 139.69-22.7Q143.59-24.4 145.64-24.75 147.69-25.1 148.64-25.13 149.59-25.15 150.46-25.1 151.34-25.05 152.74-24.65 154.14-24.25 155.16-23.53 156.19-22.8 156.94-21.35 157.69-19.9 157.69-17.9L157.69-17.9 157.69-2.6Q157.69-1.05 158.49-1.05L158.49-1.05 161.54-0.9 161.49-0.15Q158.69 0.25 156.49 0.25L156.49 0.25Q155.89 0.2 155.24-0.38 154.59-0.95 154.59-1.9ZM146.59-0.6L146.59-0.6Q150.29-0.6 154.44-3.2L154.44-3.2 154.44-11.45Q146.94-11.2 145.01-10.58 143.09-9.95 142.36-8.63 141.64-7.3 141.64-6L141.64-6Q141.64-5.75 141.64-5.5L141.64-5.5Q141.79-2.9 143.19-1.75 144.59-0.6 146.59-0.6Z" opacity="1" transform="matrix(1,0,0,1,0,0)" fill="#f5ba41" class="undefined-text-0" data-fill-palette-color="primary" id="text-0"></path></svg></g></svg></g></svg></g></svg></g></svg></g></svg></g></svg></g></svg></g></svg><rect width="395.52" height="247.2" fill="none" stroke="none" visibility="hidden"></rect></g></svg></g></svg>