<svg width="142" height="142" viewBox="0 0 142 142" fill="none" xmlns="http://www.w3.org/2000/svg">
<path fill-rule="evenodd" clip-rule="evenodd" d="M71 0C89.9648 0 107.795 7.38539 121.205 20.7952C134.615 34.2054 142 52.0352 142 71C142 89.9648 134.615 107.795 121.205 121.205C107.795 134.615 89.9648 142 71 142C52.0352 142 34.2054 134.615 20.7952 121.205C7.38539 107.795 0 89.9648 0 71C0 53.625 6.34147 36.9036 17.8562 23.9165C18.6184 23.0567 19.9327 22.9777 20.7927 23.7398C21.6525 24.5019 21.7313 25.8165 20.9694 26.6763C10.1297 38.9022 4.16016 54.6431 4.16016 71C4.16016 107.856 34.1443 137.84 71 137.84C107.856 137.84 137.84 107.856 137.84 71C137.84 34.1443 107.856 4.16016 71 4.16016C54.6431 4.16016 38.9022 10.1297 26.676 20.9697C25.8163 21.7318 24.5017 21.6528 23.7395 20.793C22.9777 19.9333 23.0564 18.6186 23.9162 17.8565C36.9036 6.34147 53.625 0 71 0ZM24.3832 30.4695C25.1373 29.6028 26.4511 29.5121 27.3178 30.2668C28.1842 31.0212 28.2749 32.3349 27.5197 33.2022C18.381 43.698 13.3483 57.1217 13.3483 71.0011C13.3486 84.0399 17.5961 96.3406 25.6321 106.574C25.6743 106.627 25.7297 106.656 25.7966 106.66C25.8953 106.664 25.9461 106.614 25.963 106.597L35.4764 97.0836C34.8144 94.6258 34.4591 92.0434 34.4591 89.3793V64.2639C34.4591 61.818 35.4664 59.427 37.2226 57.7039C38.9549 56.0043 41.2174 55.0935 43.604 55.1381C45.3055 55.1706 46.8952 55.6881 48.2431 56.554V41.1353C48.2431 36.1881 52.2679 32.1633 57.2152 32.1633C58.9852 32.1633 60.6357 32.6805 62.0274 33.5688V31.9461C62.0274 26.9988 66.0522 22.9738 70.9994 22.9738C75.009 22.9738 78.4123 25.618 79.5583 29.2539C81.031 28.1948 82.8351 27.5685 84.7834 27.5685C89.7307 27.5685 93.7555 31.5933 93.7555 36.5406V38.8048L106.596 25.9644C106.613 25.9474 106.665 25.8956 106.659 25.7979C106.655 25.7311 106.626 25.6754 106.573 25.6335C96.3392 17.5975 84.0388 13.3499 71 13.3497C57.1206 13.3497 43.6969 18.3826 33.2011 27.5211C32.3347 28.2752 31.0206 28.1845 30.2665 27.3183C29.5121 26.4519 29.6028 25.1381 30.4693 24.3838C41.7222 14.5858 56.1163 9.18977 71 9.18977C84.9795 9.19005 98.1689 13.7449 109.142 22.3619C110.128 23.1363 110.737 24.2981 110.812 25.5492C110.887 26.7978 110.422 28.0217 109.538 28.9061L96.9402 41.5039C97.4139 41.4155 97.8996 41.363 98.3955 41.3536C100.021 41.3237 101.605 41.7427 102.998 42.5578L113.094 32.4617C113.979 31.5772 115.198 31.1107 116.451 31.1878C117.702 31.2625 118.864 31.8712 119.638 32.8577C128.255 43.8306 132.81 57.0199 132.81 70.9994C132.81 105.082 105.082 132.81 70.9994 132.81C57.0199 132.81 43.8306 128.255 32.8577 119.638C31.8715 118.864 31.2627 117.702 31.1879 116.451C31.113 115.202 31.5775 113.979 32.4617 113.094L39.5636 105.992C38.5874 104.554 37.7348 103.027 37.0196 101.424L28.9056 109.538C28.0827 110.361 26.967 110.82 25.8102 110.82C25.7234 110.82 25.636 110.818 25.5486 110.812C24.2975 110.737 23.1357 110.128 22.3614 109.142C13.7443 98.1691 9.18951 84.9798 9.18923 71.0003C9.18923 56.1166 14.5852 41.7225 24.3832 30.4695ZM116.203 35.3402C116.106 35.3339 116.053 35.3863 116.036 35.4035L106.013 45.4267C106.996 46.9202 107.54 48.6844 107.54 50.4793V89.3782C107.54 105.726 94.2403 119.026 77.8923 119.026H64.1086C55.4147 119.026 47.583 115.265 42.1551 109.284L35.404 116.035C35.3868 116.053 35.335 116.104 35.3408 116.202C35.3447 116.269 35.3741 116.325 35.4273 116.366C45.6608 124.403 57.9612 128.65 71 128.65C102.789 128.65 128.651 102.788 128.651 70.9994C128.651 57.9607 124.403 45.6599 116.367 35.4268C116.325 35.3735 116.269 35.3444 116.203 35.3402ZM40.1369 60.6728C39.1729 61.6186 38.6201 62.9273 38.6201 64.2633V89.3784C38.6201 103.432 50.0539 114.866 64.108 114.866H77.8928C91.9467 114.866 103.381 103.433 103.381 89.3784V50.479C103.381 49.1434 102.828 47.8346 101.864 46.8888C100.935 45.9778 99.7331 45.4907 98.4748 45.5129C95.8733 45.5623 93.7566 47.7203 93.7566 50.324V71C93.7566 72.149 92.8256 73.0801 91.6765 73.0801C90.5275 73.0801 89.5965 72.149 89.5965 71V43.8275V43.8247V36.54C89.5965 33.8867 87.4376 31.7281 84.7845 31.7281C82.1309 31.7281 79.9723 33.887 79.9723 36.54V68.7028C79.9723 69.8518 79.0413 70.7828 77.8923 70.7828C76.7432 70.7828 75.8122 69.8518 75.8122 68.7028V31.9455C75.8122 29.2919 73.6536 27.1334 71.0003 27.1334C68.3469 27.1334 66.1884 29.2922 66.1884 31.9455V68.7025C66.1884 69.8515 65.2573 70.7826 64.1083 70.7826C62.9593 70.7826 62.0282 69.8515 62.0282 68.7025V41.1345C62.0282 38.4812 59.8694 36.3226 57.216 36.3226C54.5627 36.3226 52.4041 38.4814 52.4041 41.1345V64.108V75.7232C52.4041 75.8313 52.4807 75.9245 52.5783 75.9353C62.9565 77.0735 70.7828 85.8162 70.7828 96.271C70.7828 97.42 69.8518 98.3511 68.7028 98.3511C67.5537 98.3511 66.6227 97.42 66.6227 96.271C66.6227 87.9421 60.3899 80.9774 52.1248 80.0705C49.9124 79.8276 48.2442 77.9588 48.2442 75.7232V64.1083C48.2442 61.5046 46.1275 59.3466 43.526 59.2972C42.258 59.2783 41.0657 59.762 40.1369 60.6728Z" fill="#EAEEF1"/>
</svg>
